<svg width="68" height="95" viewBox="0 0 68 95" fill="none" xmlns="http://www.w3.org/2000/svg">
<g clip-path="url(#clip0)">
<path d="M67.7105 89.7551C67.7105 92.2151 65.7041 94.2144 63.225 94.2144L5.22014 94.2802C3.24684 94.2802 1.57203 93.0214 0.966778 91.2689C0.809246 90.8164 0.726334 90.3392 0.726334 89.8373L0.635132 6.8289C0.635132 4.36884 2.64159 2.36953 5.12064 2.36953L58.383 2.31194L63.1255 2.30371C65.6046 2.30371 67.6193 4.29479 67.6193 6.75485L67.7105 89.7551Z" fill="url(#paint0_linear)"/>
<path d="M61.6994 89.2779L6.7374 89.3355C5.40252 89.3355 4.32467 88.2659 4.32467 86.9413L4.24176 9.69219C4.24176 8.36754 5.31961 7.29795 6.65449 7.29795L61.6082 7.24036C62.9431 7.24036 64.021 8.30995 64.021 9.63459L64.1039 86.8837C64.1122 88.2001 63.0343 89.2779 61.6994 89.2779Z" fill="white"/>
<path d="M53.9804 13.6084L13.8927 13.6578C12.5661 13.6578 11.48 12.5882 11.48 11.2718L11.4717 4.64033C11.4717 3.32391 12.5495 2.24609 13.8761 2.24609L53.9721 2.20496C55.2987 2.20496 56.3848 3.27455 56.3848 4.59097L56.3931 11.2224C56.3848 12.5388 55.307 13.6084 53.9804 13.6084ZM13.8761 3.46378C13.2294 3.46378 12.6988 3.99035 12.6988 4.6321L12.7071 11.2636C12.7071 11.9053 13.2377 12.4319 13.8844 12.4319L53.9804 12.3907C54.6271 12.3907 55.1578 11.8642 55.1578 11.2224L55.1495 4.59097C55.1495 3.94921 54.6188 3.42264 53.9721 3.42264L13.8761 3.46378Z" fill="url(#paint1_linear)"/>
<path d="M52.8445 5.07644L15.41 5.11758C14.9954 5.11758 14.6638 4.78847 14.6638 4.37709V0.781624C14.6638 0.370243 14.9954 0.0411381 15.41 0.0411381L52.8362 0C53.2508 0 53.5824 0.329105 53.5824 0.740485V4.33595C53.5907 4.74733 53.2591 5.07644 52.8445 5.07644Z" fill="url(#paint2_linear)"/>
<path d="M15.4431 5.1176L52.8113 5.07646C53.2425 5.07646 53.5907 4.7309 53.5907 4.30307V2.54236L14.6555 2.5835V4.34421C14.6555 4.77204 15.012 5.1176 15.4431 5.1176Z" fill="#58D6F4"/>
<path d="M28.5763 80.5895L25.3428 61.1723L22.7228 69.622L15.2276 69.6303C14.7715 69.6303 14.4067 69.2683 14.4067 68.8157C14.4067 68.3632 14.7715 68.0012 15.2276 68.0012L21.5205 67.993L25.8402 54.0801L29.0738 73.5466L33.2691 60.1767L35.4994 66.512L40.5239 54.4256L45.4074 73.596L47.248 67.4993L52.6372 67.4911C53.0932 67.4911 53.4581 67.8531 53.4581 68.3056C53.4581 68.7581 53.0932 69.1202 52.6372 69.1202L48.4668 69.1284L45.2747 79.7009L40.1508 59.5926L35.3668 71.0866L33.352 65.3684L28.5763 80.5895Z" fill="#58D6F4"/>
<path d="M23.0212 43.1539L12.4831 43.1621C10.7835 43.1621 9.39054 41.7881 9.39054 40.1014L9.37396 25.4809C9.37396 23.7943 10.7586 22.412 12.4583 22.412L22.9963 22.4038C24.696 22.4038 26.0889 23.7778 26.0889 25.4645L26.1055 40.085C26.1055 41.7716 24.7209 43.1456 23.0212 43.1539ZM12.45 23.3006C11.2395 23.3006 10.2611 24.2797 10.2611 25.4809L10.2777 40.1014C10.2777 41.3026 11.2643 42.2735 12.4749 42.2735L23.0129 42.2653C24.2234 42.2653 25.2018 41.2862 25.2018 40.085L25.1852 25.4645C25.1852 24.2633 24.1985 23.2924 22.988 23.2924L12.45 23.3006Z" fill="url(#paint3_linear)"/>
<path d="M17.7398 40.3482C22.7228 40.34 24.2732 37.485 24.2732 37.485C24.0493 37.2053 23.7674 36.9585 23.386 36.7116C22.076 35.8642 21.0231 35.5022 20.5836 35.1401C20.1359 34.7864 19.8872 34.268 19.8872 34.268L19.6136 34.4326C19.6136 34.4326 19.4477 33.8649 19.539 33.001C19.539 33.001 19.9286 32.9022 20.2188 31.594C20.6831 31.6845 21.2303 30.5162 20.9733 30.0884C20.8075 29.8087 20.6085 29.8333 20.4676 29.8992C20.6085 29.315 21.2469 26.0815 17.7315 26.0815C14.216 26.0815 14.8544 29.315 15.0037 29.8992C14.8627 29.8333 14.6638 29.8087 14.4979 30.0884C14.2409 30.5162 14.7964 31.6845 15.2607 31.594C15.5509 32.9022 15.9489 32.9927 15.9489 32.9927C16.0484 33.8484 15.8743 34.4243 15.8743 34.4243L15.6007 34.2598C15.6007 34.2598 15.3519 34.7699 14.9042 35.1319C14.4565 35.4939 13.4118 35.8642 12.1018 36.7116C11.7204 36.9585 11.4302 37.2053 11.2146 37.485C11.2063 37.5015 12.7651 40.3565 17.7398 40.3482Z" fill="url(#paint4_linear)"/>
<path d="M50.5561 27.0689L30.2677 27.0935C29.8863 27.0935 29.5795 26.7891 29.5795 26.4107V26.2955C29.5795 25.917 29.8863 25.6126 30.2677 25.6126L50.5561 25.5879C50.9375 25.5879 51.2443 25.8923 51.2443 26.2708V26.386C51.2443 26.7644 50.9292 27.0689 50.5561 27.0689Z" fill="url(#paint5_linear)"/>
<path d="M43.0941 30.9029L30.2677 30.9193C29.8863 30.9193 29.5795 30.6149 29.5795 30.2364V30.1212C29.5795 29.7428 29.8863 29.4383 30.2677 29.4383L43.0941 29.4219C43.4755 29.4219 43.7823 29.7263 43.7823 30.1048V30.22C43.7823 30.5984 43.4755 30.9029 43.0941 30.9029Z" fill="url(#paint6_linear)"/>
<path opacity="0.6" d="M57.5539 35.4611L30.276 35.494C29.8946 35.494 29.5878 35.1896 29.5878 34.8111V34.6959C29.5878 34.3174 29.8946 34.013 30.276 34.013L57.5539 33.9801C57.9353 33.9801 58.242 34.2845 58.242 34.663V34.7782C58.2338 35.1567 57.927 35.4611 57.5539 35.4611Z" fill="url(#paint7_linear)"/>
<path opacity="0.6" d="M56.9652 48.2714L11.4633 48.3207C11.0737 48.3207 10.7503 48.0081 10.7503 47.6132V47.5473C10.7503 47.1606 11.0654 46.8398 11.4633 46.8398L56.9652 46.7904C57.3549 46.7904 57.6782 47.1031 57.6782 47.498V47.5638C57.6782 47.9587 57.3549 48.2714 56.9652 48.2714Z" fill="url(#paint8_linear)"/>
<path opacity="0.6" d="M57.5539 39.9369L30.276 39.9698C29.8946 39.9698 29.5878 39.6654 29.5878 39.2869V39.1717C29.5878 38.7933 29.8946 38.4888 30.276 38.4888L57.5539 38.4559C57.9353 38.4559 58.242 38.7604 58.242 39.1388V39.254C58.242 39.6325 57.9353 39.9369 57.5539 39.9369Z" fill="url(#paint9_linear)"/>
</g>
<defs>
<linearGradient id="paint0_linear" x1="-8.65355" y1="34.4817" x2="76.8726" y2="62.4854" gradientUnits="userSpaceOnUse">
<stop stop-color="#6CBCFC"/>
<stop offset="0.1713" stop-color="#5EABFC"/>
<stop offset="0.4084" stop-color="#509AFC"/>
<stop offset="0.6698" stop-color="#4890FC"/>
<stop offset="1" stop-color="#458DFC"/>
</linearGradient>
<linearGradient id="paint1_linear" x1="-4.58984" y1="-21.2112" x2="56.2091" y2="8.29409" gradientUnits="userSpaceOnUse">
<stop stop-color="#CFE9FF"/>
<stop offset="1" stop-color="#A1D6FB"/>
</linearGradient>
<linearGradient id="paint2_linear" x1="14.6543" y1="2.55975" x2="53.5901" y2="2.55975" gradientUnits="userSpaceOnUse">
<stop stop-color="#B0F4FF"/>
<stop offset="1" stop-color="#69DCFC"/>
</linearGradient>
<linearGradient id="paint3_linear" x1="14.7701" y1="28.9837" x2="24.4568" y2="41.585" gradientUnits="userSpaceOnUse">
<stop stop-color="#6CBCFC"/>
<stop offset="1" stop-color="#458DFC"/>
</linearGradient>
<linearGradient id="paint4_linear" x1="13.7093" y1="29.7992" x2="23.3961" y2="42.4006" gradientUnits="userSpaceOnUse">
<stop stop-color="#B0F4FF"/>
<stop offset="0.0994384" stop-color="#A1EFFE"/>
<stop offset="0.2994" stop-color="#88E7FD"/>
<stop offset="0.5095" stop-color="#77E1FD"/>
<stop offset="0.7344" stop-color="#6CDDFC"/>
<stop offset="1" stop-color="#69DCFC"/>
</linearGradient>
<linearGradient id="paint5_linear" x1="29.5807" y1="26.3475" x2="51.24" y2="26.3606" gradientUnits="userSpaceOnUse">
<stop stop-color="#6CBCFC"/>
<stop offset="1" stop-color="#458DFC"/>
</linearGradient>
<linearGradient id="paint6_linear" x1="29.5847" y1="30.1706" x2="43.7814" y2="30.1706" gradientUnits="userSpaceOnUse">
<stop stop-color="#6CBCFC"/>
<stop offset="1" stop-color="#458DFC"/>
</linearGradient>
<linearGradient id="paint7_linear" x1="29.5894" y1="34.7415" x2="58.2374" y2="34.7415" gradientUnits="userSpaceOnUse">
<stop stop-color="#6CBCFC"/>
<stop offset="1" stop-color="#458DFC"/>
</linearGradient>
<linearGradient id="paint8_linear" x1="10.7499" y1="47.5599" x2="57.6759" y2="47.5599" gradientUnits="userSpaceOnUse">
<stop stop-color="#6CBCFC"/>
<stop offset="1" stop-color="#458DFC"/>
</linearGradient>
<linearGradient id="paint9_linear" x1="29.594" y1="39.2164" x2="58.242" y2="39.2164" gradientUnits="userSpaceOnUse">
<stop stop-color="#6CBCFC"/>
<stop offset="1" stop-color="#458DFC"/>
</linearGradient>
<clipPath id="clip0">
<rect width="67.0754" height="94.272" fill="white" transform="translate(0.635132)"/>
</clipPath>
</defs>
</svg>
