<svg width="194" height="129" viewBox="0 0 194 129" fill="none" xmlns="http://www.w3.org/2000/svg">
<path d="M89.8879 51.8059L81.9439 43.8139V51.8059H78.8479V34.7179H81.9439V42.3739L89.5759 34.7179H93.2959L84.9919 42.9259L93.6799 51.8059H89.8879ZM101.552 39.3739C104.448 39.3739 105.896 41.0379 105.896 44.3659V51.8059H102.896V44.5099C102.896 43.5499 102.712 42.8539 102.344 42.4219C101.976 41.9739 101.408 41.7499 100.64 41.7499C99.7283 41.7499 98.9923 42.0459 98.4323 42.6379C97.8723 43.2139 97.5923 43.9819 97.5923 44.9419V51.8059H94.6163V43.1179C94.6163 41.8379 94.5523 40.6939 94.4243 39.6859H97.2323L97.4483 41.6779C97.8643 40.9419 98.4243 40.3739 99.1283 39.9739C99.8483 39.5739 100.656 39.3739 101.552 39.3739ZM114.573 51.9979C113.341 51.9979 112.253 51.7419 111.309 51.2299C110.381 50.7179 109.661 49.9899 109.149 49.0459C108.653 48.0859 108.405 46.9659 108.405 45.6859C108.405 44.4059 108.653 43.2939 109.149 42.3499C109.661 41.3899 110.381 40.6539 111.309 40.1419C112.253 39.6299 113.341 39.3739 114.573 39.3739C115.789 39.3739 116.861 39.6299 117.789 40.1419C118.717 40.6539 119.429 41.3899 119.925 42.3499C120.437 43.2939 120.693 44.4059 120.693 45.6859C120.693 46.9659 120.437 48.0859 119.925 49.0459C119.429 49.9899 118.717 50.7179 117.789 51.2299C116.861 51.7419 115.789 51.9979 114.573 51.9979ZM114.549 49.6459C115.573 49.6459 116.349 49.3179 116.877 48.6619C117.421 47.9899 117.693 46.9979 117.693 45.6859C117.693 44.3899 117.421 43.4059 116.877 42.7339C116.333 42.0459 115.565 41.7019 114.573 41.7019C113.565 41.7019 112.789 42.0459 112.245 42.7339C111.701 43.4059 111.429 44.3899 111.429 45.6859C111.429 46.9979 111.693 47.9899 112.221 48.6619C112.765 49.3179 113.541 49.6459 114.549 49.6459ZM128.776 51.9979C127.512 51.9979 126.416 51.7419 125.488 51.2299C124.56 50.7179 123.848 49.9979 123.352 49.0699C122.856 48.1259 122.608 47.0219 122.608 45.7579C122.608 44.4939 122.864 43.3819 123.376 42.4219C123.904 41.4619 124.64 40.7179 125.584 40.1899C126.544 39.6459 127.648 39.3739 128.896 39.3739C129.76 39.3739 130.592 39.5099 131.392 39.7819C132.208 40.0539 132.856 40.4299 133.336 40.9099L132.496 43.0219C131.984 42.6059 131.44 42.2939 130.864 42.0859C130.288 41.8619 129.72 41.7499 129.16 41.7499C128.072 41.7499 127.224 42.0939 126.616 42.7819C126.008 43.4539 125.704 44.4299 125.704 45.7099C125.704 46.9899 126 47.9659 126.592 48.6379C127.2 49.3099 128.056 49.6459 129.16 49.6459C129.72 49.6459 130.288 49.5339 130.864 49.3099C131.44 49.0859 131.984 48.7659 132.496 48.3499L133.336 50.4619C132.824 50.9419 132.16 51.3179 131.344 51.5899C130.528 51.8619 129.672 51.9979 128.776 51.9979ZM143.631 51.8059L138.327 46.2139V51.8059H135.351V34.1419H138.327V45.0379L143.319 39.7099H146.943L141.495 45.4939L147.375 51.8059H143.631ZM148.785 34.7179H155.073C157.873 34.7179 160.041 35.4619 161.577 36.9499C163.129 38.4379 163.905 40.5339 163.905 43.2379C163.905 45.9579 163.129 48.0699 161.577 49.5739C160.041 51.0619 157.873 51.8059 155.073 51.8059H148.785V34.7179ZM154.881 49.2859C158.817 49.2859 160.785 47.2699 160.785 43.2379C160.785 39.2379 158.817 37.2379 154.881 37.2379H151.881V49.2859H154.881ZM172.347 51.9979C171.115 51.9979 170.027 51.7419 169.083 51.2299C168.155 50.7179 167.435 49.9899 166.923 49.0459C166.427 48.0859 166.179 46.9659 166.179 45.6859C166.179 44.4059 166.427 43.2939 166.923 42.3499C167.435 41.3899 168.155 40.6539 169.083 40.1419C170.027 39.6299 171.115 39.3739 172.347 39.3739C173.563 39.3739 174.635 39.6299 175.563 40.1419C176.491 40.6539 177.203 41.3899 177.699 42.3499C178.211 43.2939 178.467 44.4059 178.467 45.6859C178.467 46.9659 178.211 48.0859 177.699 49.0459C177.203 49.9899 176.491 50.7179 175.563 51.2299C174.635 51.7419 173.563 51.9979 172.347 51.9979ZM172.323 49.6459C173.347 49.6459 174.123 49.3179 174.651 48.6619C175.195 47.9899 175.467 46.9979 175.467 45.6859C175.467 44.3899 175.195 43.4059 174.651 42.7339C174.107 42.0459 173.339 41.7019 172.347 41.7019C171.339 41.7019 170.563 42.0459 170.019 42.7339C169.475 43.4059 169.203 44.3899 169.203 45.6859C169.203 46.9979 169.467 47.9899 169.995 48.6619C170.539 49.3179 171.315 49.6459 172.323 49.6459ZM186.55 51.9979C185.286 51.9979 184.19 51.7419 183.262 51.2299C182.334 50.7179 181.622 49.9979 181.126 49.0699C180.63 48.1259 180.382 47.0219 180.382 45.7579C180.382 44.4939 180.638 43.3819 181.15 42.4219C181.678 41.4619 182.414 40.7179 183.358 40.1899C184.318 39.6459 185.422 39.3739 186.67 39.3739C187.534 39.3739 188.366 39.5099 189.166 39.7819C189.982 40.0539 190.63 40.4299 191.11 40.9099L190.27 43.0219C189.758 42.6059 189.214 42.2939 188.638 42.0859C188.062 41.8619 187.494 41.7499 186.934 41.7499C185.846 41.7499 184.998 42.0939 184.39 42.7819C183.782 43.4539 183.478 44.4299 183.478 45.7099C183.478 46.9899 183.774 47.9659 184.366 48.6379C184.974 49.3099 185.83 49.6459 186.934 49.6459C187.494 49.6459 188.062 49.5339 188.638 49.3099C189.214 49.0859 189.758 48.7659 190.27 48.3499L191.11 50.4619C190.598 50.9419 189.934 51.3179 189.118 51.5899C188.302 51.8619 187.446 51.9979 186.55 51.9979Z" fill="#538DDE"/>
<circle cx="35.4999" cy="42.3059" r="20.5" fill="#458FF6"/>
<path d="M40.9619 52.8059L32.3559 44.1479V52.8059H29.0019V34.2939H32.3559V42.5879L40.6239 34.2939H44.6539L35.6579 43.1859L45.0699 52.8059H40.9619Z" fill="white"/>
<path d="M21 128.612H19.4168C9.26176 128.612 1 120.35 1 110.195C1 100.04 9.26176 91.7784 19.4168 91.7784H31.9168V79.8876H39.4168V91.7784H66.7501C73.9128 91.7784 79.8564 87.3411 81.5394 80.7371L88.8071 82.5891C86.2631 92.5717 77.3991 99.2784 66.7501 99.2784H39.4166V110.195C39.4166 120.35 31.155 128.612 21 128.612ZM19.4165 99.2784C13.397 99.2784 8.49976 104.176 8.49976 110.195C8.49976 116.215 13.397 121.112 19.4165 121.112H20.9998C27.0193 121.112 31.9165 116.215 31.9165 110.195V99.2784H19.4165Z" fill="#0065A3"/>
<path d="M81.5392 80.7371C79.8562 87.3411 73.9129 91.7784 66.7499 91.7784H39.4166V79.8876H35.4999V121.529C37.9501 118.401 39.4166 114.467 39.4166 110.195V99.2782H66.7499C77.3989 99.2782 86.2629 92.5714 88.8069 82.5889L81.5392 80.7371Z" fill="#00317E"/>
<path d="M85.9166 81.6951C91.0713 81.6951 95.2499 77.5165 95.2499 72.3619C95.2499 67.2073 91.0713 63.0286 85.9166 63.0286C80.762 63.0286 76.5834 67.2073 76.5834 72.3619C76.5834 77.5165 80.762 81.6951 85.9166 81.6951Z" fill="#00317E"/>
<path d="M85.9166 85.4451C78.7026 85.4451 72.8334 79.5758 72.8334 72.3618C72.8334 65.1476 78.7026 59.2783 85.9166 59.2783C93.1309 59.2783 98.9999 65.1476 98.9999 72.3618C99.0002 79.5761 93.1309 85.4451 85.9166 85.4451ZM85.9166 66.7783C82.8381 66.7783 80.3334 69.2831 80.3334 72.3618C80.3334 75.4403 82.8381 77.9451 85.9166 77.9451C88.9954 77.9451 91.4999 75.4403 91.4999 72.3618C91.5001 69.2831 88.9954 66.7783 85.9166 66.7783V66.7783Z" fill="#8A8AA9"/>
<path d="M35.5 83.6379C17.028 83.6379 2 68.6098 2 50.1378V17.1603C2 10.524 7.39901 5.125 14.035 5.125H17.6735V12.625H14.035C11.5345 12.625 9.50001 14.6595 9.50001 17.1603V50.1378C9.50001 64.4743 21.1635 76.1378 35.5 76.1378C49.8366 76.1378 61.5001 64.4743 61.5001 50.1378V17.6128C61.5001 15.1123 59.4656 13.0778 56.9651 13.0778H53.2571V5.57775H56.9651C63.6011 5.57775 69.0001 10.9768 69.0001 17.6128V50.1378C69.0001 68.6096 53.9718 83.6379 35.5 83.6379Z" fill="#BDBDD2"/>
<path d="M56.9649 5.578H53.2569V13.078H56.9649C59.4654 13.078 61.4999 15.1125 61.4999 17.613V50.1381C61.4999 64.4746 49.8364 76.1381 35.4999 76.1381V83.6381C53.9719 83.6381 68.9999 68.6101 68.9999 50.1381V17.613C69.0002 10.9768 63.6012 5.578 56.9649 5.578V5.578Z" fill="#ABABC5"/>
<path d="M47.4236 1C43.0813 1 39.5486 4.53275 39.5486 8.87501C39.5486 13.2173 43.0813 16.75 47.4236 16.75H55.1319V1H47.4236Z" fill="#00317E"/>
<path d="M23.5067 1H15.7985V16.75H23.5067C27.849 16.75 31.3817 13.2173 31.3817 8.87501C31.3817 4.53275 27.8492 1 23.5067 1Z" fill="#0065A3"/>
</svg>
