<svg width="194" height="129" viewBox="0 0 194 129" fill="none" xmlns="http://www.w3.org/2000/svg">
<g clip-path="url(#clip0)">
<circle cx="35.4999" cy="42.3059" r="20.5" fill="#458FF6"/>
<path d="M40.9619 52.8059L32.3559 44.1479V52.8059H29.0019V34.2939H32.3559V42.5879L40.6239 34.2939H44.6539L35.6579 43.1859L45.0699 52.8059H40.9619Z" fill="white"/>
<path d="M21 128.612H19.4168C9.26176 128.612 1 120.35 1 110.195C1 100.04 9.26176 91.7784 19.4168 91.7784H31.9168V79.8876H39.4168V91.7784H66.7501C73.9128 91.7784 79.8564 87.3411 81.5394 80.7371L88.8071 82.5891C86.2631 92.5717 77.3991 99.2784 66.7501 99.2784H39.4165V110.195C39.4165 120.35 31.155 128.612 21 128.612ZM19.4165 99.2784C13.397 99.2784 8.49976 104.176 8.49976 110.195C8.49976 116.215 13.397 121.112 19.4165 121.112H20.9998C27.0193 121.112 31.9165 116.215 31.9165 110.195V99.2784H19.4165Z" fill="#0065A3"/>
<path d="M81.5392 80.7371C79.8562 87.3411 73.9129 91.7784 66.7499 91.7784H39.4166V79.8876H35.4999V121.529C37.9501 118.401 39.4166 114.467 39.4166 110.195V99.2782H66.7499C77.3989 99.2782 86.2629 92.5714 88.8069 82.5889L81.5392 80.7371Z" fill="#00317E"/>
<path d="M85.9166 81.6951C91.0713 81.6951 95.2499 77.5165 95.2499 72.3619C95.2499 67.2073 91.0713 63.0286 85.9166 63.0286C80.762 63.0286 76.5834 67.2073 76.5834 72.3619C76.5834 77.5165 80.762 81.6951 85.9166 81.6951Z" fill="#00317E"/>
<path d="M85.9166 85.4451C78.7026 85.4451 72.8334 79.5758 72.8334 72.3618C72.8334 65.1476 78.7026 59.2783 85.9166 59.2783C93.1309 59.2783 98.9999 65.1476 98.9999 72.3618C99.0002 79.5761 93.1309 85.4451 85.9166 85.4451ZM85.9166 66.7783C82.8381 66.7783 80.3334 69.2831 80.3334 72.3618C80.3334 75.4403 82.8381 77.9451 85.9166 77.9451C88.9954 77.9451 91.4999 75.4403 91.4999 72.3618C91.5001 69.2831 88.9954 66.7783 85.9166 66.7783Z" fill="#8A8AA9"/>
<path d="M35.5 83.6378C17.028 83.6378 2 68.6098 2 50.1378V17.1603C2 10.524 7.39901 5.125 14.035 5.125H17.6735V12.625H14.035C11.5345 12.625 9.50001 14.6595 9.50001 17.1603V50.1378C9.50001 64.4743 21.1635 76.1378 35.5 76.1378C49.8366 76.1378 61.5001 64.4743 61.5001 50.1378V17.6128C61.5001 15.1123 59.4656 13.0778 56.9651 13.0778H53.2571V5.57775H56.9651C63.6011 5.57775 69.0001 10.9768 69.0001 17.6128V50.1378C69.0001 68.6096 53.9718 83.6378 35.5 83.6378Z" fill="#BDBDD2"/>
<path d="M56.9649 5.578H53.2569V13.078H56.9649C59.4654 13.078 61.4999 15.1125 61.4999 17.613V50.1381C61.4999 64.4746 49.8364 76.1381 35.4999 76.1381V83.6381C53.9719 83.6381 68.9999 68.6101 68.9999 50.1381V17.613C69.0002 10.9768 63.6012 5.578 56.9649 5.578Z" fill="#ABABC5"/>
<path d="M47.4236 1C43.0813 1 39.5486 4.53275 39.5486 8.87501C39.5486 13.2173 43.0813 16.75 47.4236 16.75H55.1319V1H47.4236Z" fill="#00317E"/>
<path d="M23.5067 1H15.7985V16.75H23.5067C27.849 16.75 31.3817 13.2173 31.3817 8.87501C31.3817 4.53275 27.8492 1 23.5067 1Z" fill="#0065A3"/>
<path d="M92.888 46L84.944 38.008V46H81.848V28.912H84.944V36.568L92.576 28.912H96.296L87.992 37.12L96.68 46H92.888ZM104.552 33.568C107.448 33.568 108.896 35.232 108.896 38.56V46H105.896V38.704C105.896 37.744 105.712 37.048 105.344 36.616C104.976 36.168 104.408 35.944 103.64 35.944C102.728 35.944 101.992 36.24 101.432 36.832C100.872 37.408 100.592 38.176 100.592 39.136V46H97.6164V37.312C97.6164 36.032 97.5524 34.888 97.4244 33.88H100.232L100.448 35.872C100.864 35.136 101.424 34.568 102.128 34.168C102.848 33.768 103.656 33.568 104.552 33.568ZM117.573 46.192C116.341 46.192 115.253 45.936 114.309 45.424C113.381 44.912 112.661 44.184 112.149 43.24C111.653 42.28 111.405 41.16 111.405 39.88C111.405 38.6 111.653 37.488 112.149 36.544C112.661 35.584 113.381 34.848 114.309 34.336C115.253 33.824 116.341 33.568 117.573 33.568C118.789 33.568 119.861 33.824 120.789 34.336C121.717 34.848 122.429 35.584 122.925 36.544C123.437 37.488 123.693 38.6 123.693 39.88C123.693 41.16 123.437 42.28 122.925 43.24C122.429 44.184 121.717 44.912 120.789 45.424C119.861 45.936 118.789 46.192 117.573 46.192ZM117.549 43.84C118.573 43.84 119.349 43.512 119.877 42.856C120.421 42.184 120.693 41.192 120.693 39.88C120.693 38.584 120.421 37.6 119.877 36.928C119.333 36.24 118.565 35.896 117.573 35.896C116.565 35.896 115.789 36.24 115.245 36.928C114.701 37.6 114.429 38.584 114.429 39.88C114.429 41.192 114.693 42.184 115.221 42.856C115.765 43.512 116.541 43.84 117.549 43.84ZM131.776 46.192C130.512 46.192 129.416 45.936 128.488 45.424C127.56 44.912 126.848 44.192 126.352 43.264C125.856 42.32 125.608 41.216 125.608 39.952C125.608 38.688 125.864 37.576 126.376 36.616C126.904 35.656 127.64 34.912 128.584 34.384C129.544 33.84 130.648 33.568 131.896 33.568C132.76 33.568 133.592 33.704 134.392 33.976C135.208 34.248 135.856 34.624 136.336 35.104L135.496 37.216C134.984 36.8 134.44 36.488 133.864 36.28C133.288 36.056 132.72 35.944 132.16 35.944C131.072 35.944 130.224 36.288 129.616 36.976C129.008 37.648 128.704 38.624 128.704 39.904C128.704 41.184 129 42.16 129.592 42.832C130.2 43.504 131.056 43.84 132.16 43.84C132.72 43.84 133.288 43.728 133.864 43.504C134.44 43.28 134.984 42.96 135.496 42.544L136.336 44.656C135.824 45.136 135.16 45.512 134.344 45.784C133.528 46.056 132.672 46.192 131.776 46.192ZM146.631 46L141.327 40.408V46H138.351V28.336H141.327V39.232L146.319 33.904H149.943L144.495 39.688L150.375 46H146.631ZM151.786 28.912H158.074C160.874 28.912 163.042 29.656 164.578 31.144C166.13 32.632 166.906 34.728 166.906 37.432C166.906 40.152 166.13 42.264 164.578 43.768C163.042 45.256 160.874 46 158.074 46H151.786V28.912ZM157.882 43.48C161.818 43.48 163.786 41.464 163.786 37.432C163.786 33.432 161.818 31.432 157.882 31.432H154.882V43.48H157.882ZM175.347 46.192C174.115 46.192 173.027 45.936 172.083 45.424C171.155 44.912 170.435 44.184 169.923 43.24C169.427 42.28 169.179 41.16 169.179 39.88C169.179 38.6 169.427 37.488 169.923 36.544C170.435 35.584 171.155 34.848 172.083 34.336C173.027 33.824 174.115 33.568 175.347 33.568C176.563 33.568 177.635 33.824 178.563 34.336C179.491 34.848 180.203 35.584 180.699 36.544C181.211 37.488 181.467 38.6 181.467 39.88C181.467 41.16 181.211 42.28 180.699 43.24C180.203 44.184 179.491 44.912 178.563 45.424C177.635 45.936 176.563 46.192 175.347 46.192ZM175.323 43.84C176.347 43.84 177.123 43.512 177.651 42.856C178.195 42.184 178.467 41.192 178.467 39.88C178.467 38.584 178.195 37.6 177.651 36.928C177.107 36.24 176.339 35.896 175.347 35.896C174.339 35.896 173.563 36.24 173.019 36.928C172.475 37.6 172.203 38.584 172.203 39.88C172.203 41.192 172.467 42.184 172.995 42.856C173.539 43.512 174.315 43.84 175.323 43.84ZM189.55 46.192C188.286 46.192 187.19 45.936 186.262 45.424C185.334 44.912 184.622 44.192 184.126 43.264C183.63 42.32 183.382 41.216 183.382 39.952C183.382 38.688 183.638 37.576 184.15 36.616C184.678 35.656 185.414 34.912 186.358 34.384C187.318 33.84 188.422 33.568 189.67 33.568C190.534 33.568 191.366 33.704 192.166 33.976C192.982 34.248 193.63 34.624 194.11 35.104L193.27 37.216C192.758 36.8 192.214 36.488 191.638 36.28C191.062 36.056 190.494 35.944 189.934 35.944C188.846 35.944 187.998 36.288 187.39 36.976C186.782 37.648 186.478 38.624 186.478 39.904C186.478 41.184 186.774 42.16 187.366 42.832C187.974 43.504 188.83 43.84 189.934 43.84C190.494 43.84 191.062 43.728 191.638 43.504C192.214 43.28 192.758 42.96 193.27 42.544L194.11 44.656C193.598 45.136 192.934 45.512 192.118 45.784C191.302 46.056 190.446 46.192 189.55 46.192Z" fill="#538DDE"/>
</g>
<defs>
<clipPath id="clip0">
<rect width="194" height="129" fill="white"/>
</clipPath>
</defs>
</svg>
