<svg id="Capa_1" enable-background="new 0 0 512 512" height="512" viewBox="0 0 512 512" width="512" xmlns="http://www.w3.org/2000/svg"><g><g><g><path d="m256 512c-90.981 0-165-74.019-165-165v-182c0-90.981 74.019-165 165-165s165 74.019 165 165v182c0 90.981-74.019 165-165 165z" fill="#e6f2f2"/></g></g><path d="m421 347v-182c0-90.981-74.019-165-165-165v512c90.981 0 165-74.019 165-165z" fill="#cfe6e6"/><g><path d="m256 270c-57.891 0-105-47.109-105-105s47.109-105 105-105 105 47.109 105 105-47.109 105-105 105z" fill="#ffe1ba"/></g><path d="m361 165c0-57.891-47.109-105-105-105v210c57.891 0 105-47.109 105-105z" fill="#ffbfab"/><g id="Pediatry_2_"><g><path d="m211 120h30v30h-30z" fill="#407580"/></g><g><path d="m271 120h30v30h-30z" fill="#335e73"/></g></g><g><path d="m256 270c-24.814 0-45-20.186-45-45s20.186-45 45-45 45 20.186 45 45-20.186 45-45 45z" fill="#5ce6cf"/></g><path d="m301 225c0-24.814-20.186-45-45-45v90c24.814 0 45-20.186 45-45z" fill="#3dccc0"/><path d="m301 362h-30v-30h-30v30h-30v30h30v30h30v-30h30z" fill="#ff7366"/><g><path d="m271 332h-15v90h15v-30h30v-30h-30z" fill="#e6455a"/></g></g></svg>